<svg xmlns="http://www.w3.org/2000/svg" xmlns:osb="http://www.openswatchbook.org/uri/2009/osb" xmlns:svg="http://www.w3.org/2000/svg" xmlns:xlink="http://www.w3.org/1999/xlink" id="ORANGE_BACKGROUNDS" width="80" height="80" x="0" style="display:inline" y="0" enable-background="new 0 0 96 96" version="1.1" viewBox="0 0 80 80" xml:space="preserve"><metadata id="metadata3069"/><defs id="defs3067"><linearGradient id="ORANGE3_3_" x1="38.999" x2="38.999" y1="0" y2="78.001" gradientUnits="userSpaceOnUse"><stop style="stop-color:#f4952f" id="stop7-37" offset="0"/><stop style="stop-color:#ee7c27" id="stop9-10" offset=".221"/><stop style="stop-color:#e03e13" id="stop11-7" offset=".688"/><stop style="stop-color:#df3912" id="stop13-3" offset=".721"/></linearGradient><linearGradient id="HIGHLIGHT_RIM_3_-49" x1="38.999" x2="38.999" y1="-7.779" y2="133.271" gradientTransform="translate(1,17)" gradientUnits="userSpaceOnUse"><stop style="stop-color:#fff" id="stop17-6" offset="0"/><stop style="stop-color:#000" id="stop19-5" offset="1"/></linearGradient><linearGradient id="linearGradient3021-10" x1="38.999" x2="38.999" y1="0" y2="78.001" gradientTransform="translate(1,17)" gradientUnits="userSpaceOnUse" xlink:href="#ORANGE3_3_"/><linearGradient id="SVGID_1_-1" x1="298.299" x2="298.299" y1="398.787" y2="464.095" gradientUnits="userSpaceOnUse" osb:paint="gradient"><stop style="stop-color:#f7faee" id="stop4286" offset=".323"/><stop style="stop-color:#d2cac5" id="stop4288" offset="1"/></linearGradient></defs><linearGradient id="RED_x2F_ORANGE_5_2_" x1="47.999" x2="47.999" y1="8.011" y2="87.99" gradientUnits="userSpaceOnUse"><stop style="stop-color:#ffdb62" id="stop3054" offset="0"/><stop style="stop-color:#fad15c" id="stop3056" offset=".139"/><stop style="stop-color:#edb74d" id="stop3058" offset=".374"/><stop style="stop-color:#e6a844" id="stop3060" offset=".485"/><stop style="stop-color:#c96b25" id="stop3062" offset="1"/></linearGradient><g id="layer5" transform="translate(0,-16)" style="display:none"><rect style="fill:#000;fill-opacity:0;stroke:none;display:inline" id="rect3119" width="80" height="80" x="0" y="16"/></g><g style="display:inline" id="g3919" transform="translate(0,-16)"><path style="fill:url(#linearGradient3021-10)" id="ORANGE3_2_" d="M 79,56 C 79,84.893 68.895,95 40,95 11.105,95 1,84.893 1,56 1,27.106 11.105,17 40,17 68.895,17 79,27.106 79,56 z"/><path style="fill:url(#HIGHLIGHT_RIM_3_-49);fill-opacity:.25" id="HIGHLIGHT_RIM_2_-99" d="M 40,17 C 11.106,17 1,27.106 1,56 1,84.892 11.106,95 40,95 68.896,95 79,84.892 79,56 79,27.106 68.896,17 40,17 z m 0,77.048 C 11.571,94.048 1.975,84.446 1.975,56 1.975,27.554 11.571,17.953 40,17.953 68.43,17.953 78.025,27.554 78.025,56 78.025,84.446 68.43,94.048 40,94.048 z"/></g><g id="layer2" transform="translate(0,-16)" style="display:inline;opacity:.99"><g id="Layer_3" transform="matrix(0.13010819,0,0,0.13010819,6.1189645,22.482908)"><polygon style="fill:#972c0a" id="polygon24" points="448.191 389.3 412.828 410.54 256.645 213.307"/><polygon style="fill:#fff" id="polygon26" points="449.191 381.8 421.371 410.54 256.645 213.307"/><circle style="fill:#972c0a" id="circle28" cx="438.281" cy="405.17" r="44.5" d="m 482.78101,405.17001 c 0,24.57667 -19.92333,44.5 -44.5,44.5 -24.57668,0 -44.5,-19.92333 -44.5,-44.5 0,-24.57667 19.92332,-44.5 44.5,-44.5 24.57667,0 44.5,19.92333 44.5,44.5 z"/><path style="fill:#972c0a" id="path30" d="M 160.187,124.526 C 55.144,194.999 11.317,313.727 62.296,389.712 c 50.977,75.982 177.457,80.455 282.5,9.981 105.043,-70.472 148.869,-189.2 97.891,-265.185 -50.98,-75.985 -177.458,-80.455 -282.5,-9.982 z m 158.057,202.736 c -83.325,55.902 -180.853,56.539 -217.832,1.418 -36.981,-55.12 0.591,-145.122 83.915,-201.025 83.327,-55.904 180.852,-56.538 217.834,-1.418 36.981,55.12 -0.591,145.123 -83.917,201.025 z"/><path style="fill:#fff" id="path32" d="M 157.187,115.526 C 52.144,185.999 8.317,304.727 59.296,380.712 c 50.977,75.982 177.457,80.455 282.5,9.981 105.043,-70.472 148.869,-189.2 97.891,-265.185 -50.98,-75.985 -177.458,-80.455 -282.5,-9.982 z m 158.057,202.736 c -83.325,55.902 -180.853,56.539 -217.832,1.418 -36.981,-55.12 0.591,-145.122 83.915,-201.025 83.327,-55.904 180.852,-56.538 217.834,-1.418 36.981,55.12 -0.591,145.122 -83.917,201.025 z"/><circle style="fill:#fff" id="circle34" cx="435.281" cy="396.17" r="44.5" d="m 479.78101,396.17001 c 0,24.57667 -19.92333,44.5 -44.5,44.5 -24.57668,0 -44.5,-19.92333 -44.5,-44.5 0,-24.57667 19.92332,-44.5 44.5,-44.5 24.57667,0 44.5,19.92333 44.5,44.5 z"/><path style="fill:none" id="path36" d="M 399.162,117.236"/><path style="fill:none" id="path38" d="M 97.413,319.68"/></g></g></svg>