<svg xmlns="http://www.w3.org/2000/svg" xmlns:osb="http://www.openswatchbook.org/uri/2009/osb" xmlns:svg="http://www.w3.org/2000/svg" id="svg2" width="204" height="186" version="1.1"><defs id="defs4"><linearGradient id="linearGradient3789-6"><stop style="stop-color:#f1882b;stop-opacity:1" id="stop3791-0" offset="0"/><stop style="stop-color:#df3912;stop-opacity:1" id="stop3793-4" offset="1"/></linearGradient><linearGradient id="SVGID_1_-1" x1="298.299" x2="298.299" y1="398.787" y2="464.095" gradientUnits="userSpaceOnUse" osb:paint="gradient"><stop id="stop4286" offset=".323" style="stop-color:#f7faee"/><stop id="stop4288" offset="1" style="stop-color:#d2cac5"/></linearGradient><linearGradient id="SVGID_1_-1-1" x1="298.299" x2="298.299" y1="398.787" y2="464.095" gradientUnits="userSpaceOnUse" osb:paint="gradient"><stop id="stop4286-7" offset=".323" style="stop-color:#f7faee"/><stop id="stop4288-4" offset="1" style="stop-color:#d2cac5"/></linearGradient></defs><metadata id="metadata7"/><g id="layer2" transform="translate(0,96)" style="display:inline;opacity:1"><g style="display:inline" id="g3826" transform="translate(-89,4)"><g style="display:none" id="layer5" transform="translate(0,-16)"><rect id="rect3119" width="80" height="80" x="0" y="16" style="display:inline;fill:#000;fill-opacity:0;stroke:none"/></g></g><g id="layer5-0" transform="matrix(2.9618256,0,0,2.9891508,-359.51072,-188.16682)" style="display:none"><rect style="display:inline;fill:#000;fill-opacity:0;stroke:none" id="rect3119-9" width="80" height="80" x="0" y="16"/></g><g id="layer2-8" transform="matrix(3.2246358,0,0,3.2543856,-26.425353,-190.4674)" style="display:inline;opacity:.98999999"><g id="Layer_3" transform="matrix(0.13010819,0,0,0.13010819,6.1189645,22.482908)"><polygon style="fill:#ababab;fill-opacity:1" id="polygon24" points="448.191 389.3 412.828 410.54 256.645 213.307"/><polygon style="fill:#fff;fill-opacity:1" id="polygon26" points="449.191 381.8 421.371 410.54 256.645 213.307"/><circle style="fill:#ababab;fill-opacity:1" id="circle28" cx="438.281" cy="405.17" r="44.5"/><path style="fill:#ababab;fill-opacity:1" id="path30" d="M 160.187,124.526 C 55.144,194.999 11.317,313.727 62.296,389.712 c 50.977,75.982 177.457,80.455 282.5,9.981 105.043,-70.472 148.869,-189.2 97.891,-265.185 -50.98,-75.985 -177.458,-80.455 -282.5,-9.982 z m 158.057,202.736 c -83.325,55.902 -180.853,56.539 -217.832,1.418 -36.981,-55.12 0.591,-145.122 83.915,-201.025 83.327,-55.904 180.852,-56.538 217.834,-1.418 36.981,55.12 -0.591,145.123 -83.917,201.025 z"/><path style="fill:#fff;fill-opacity:1" id="path32" d="M 157.187,115.526 C 52.144,185.999 8.317,304.727 59.296,380.712 c 50.977,75.982 177.457,80.455 282.5,9.981 105.043,-70.472 148.869,-189.2 97.891,-265.185 -50.98,-75.985 -177.458,-80.455 -282.5,-9.982 z m 158.057,202.736 c -83.325,55.902 -180.853,56.539 -217.832,1.418 -36.981,-55.12 0.591,-145.122 83.915,-201.025 83.327,-55.904 180.852,-56.538 217.834,-1.418 36.981,55.12 -0.591,145.122 -83.917,201.025 z"/><circle style="fill:#fff;fill-opacity:1" id="circle34" cx="435.281" cy="396.17" r="44.5"/><path style="fill:none" id="path36" d="M 399.162,117.236"/><path style="fill:none" id="path38" d="M 97.413,319.68"/></g></g></g></svg>