<svg xmlns="http://www.w3.org/2000/svg" xmlns:osb="http://www.openswatchbook.org/uri/2009/osb" xmlns:svg="http://www.w3.org/2000/svg" xmlns:xlink="http://www.w3.org/1999/xlink" id="svg2" width="86" height="86" version="1.1"><defs id="defs4"><linearGradient id="linearGradient3789-6"><stop style="stop-color:#f1882b;stop-opacity:1" id="stop3791-0" offset="0"/><stop style="stop-color:#df3912;stop-opacity:1" id="stop3793-4" offset="1"/></linearGradient><linearGradient id="linearGradient3925" x1="45" x2="45" y1="10" y2="80" gradientTransform="matrix(-0.95555556,0,0,0.95555556,86,4)" gradientUnits="userSpaceOnUse" spreadMethod="reflect" xlink:href="#linearGradient3789-6"/><linearGradient id="SVGID_1_-1" x1="298.299" x2="298.299" y1="398.787" y2="464.095" gradientUnits="userSpaceOnUse" osb:paint="gradient"><stop id="stop4286" offset=".323" style="stop-color:#f7faee"/><stop id="stop4288" offset="1" style="stop-color:#d2cac5"/></linearGradient><linearGradient id="SVGID_1_-1-1" x1="298.299" x2="298.299" y1="398.787" y2="464.095" gradientUnits="userSpaceOnUse" osb:paint="gradient"><stop id="stop4286-7" offset=".323" style="stop-color:#f7faee"/><stop id="stop4288-4" offset="1" style="stop-color:#d2cac5"/></linearGradient></defs><metadata id="metadata7"/><g id="layer2" transform="translate(0,-4)" style="display:inline"><path style="fill:url(#linearGradient3925);fill-opacity:1;stroke:none;display:inline" id="rect3059" d="m 43,4 c 23.748244,0 43,19.251756 43,43 l 0,40.790278 C 86,89.01865 85.01865,90 83.790278,90 L 43,90 C 19.251756,90 0,70.748244 0,47 0,23.251756 19.251756,4 43,4 z"/><g style="display:inline" id="g3826" transform="translate(-89,4)"><g style="display:none" id="layer5" transform="translate(0,-16)"><rect id="rect3119" width="80" height="80" x="0" y="16" style="fill:#000;fill-opacity:0;stroke:none;display:inline"/></g></g><g style="display:inline" id="g3060" transform="matrix(1.031746,0,0,1.031746,-117.96143,1.3974685)"><g style="display:none" id="layer5-0" transform="translate(0,-16)"><rect id="rect3119-9" width="80" height="80" x="0" y="16" style="fill:#000;fill-opacity:0;stroke:none;display:inline"/></g><g style="opacity:.98999999;display:inline" id="layer2-8" transform="matrix(1.0887325,0,0,1.0887325,112.45948,-16.769642)"><g id="Layer_3" transform="matrix(0.13010819,0,0,0.13010819,6.1189645,22.482908)"><polygon id="polygon24" points="412.828 410.54 256.645 213.307 448.191 389.3" style="fill:#972c0a"/><polygon id="polygon26" points="421.371 410.54 256.645 213.307 449.191 381.8" style="fill:#fff"/><circle id="circle28" cx="438.281" cy="405.17" r="44.5" d="m 482.78101,405.17001 c 0,24.57667 -19.92333,44.5 -44.5,44.5 -24.57668,0 -44.5,-19.92333 -44.5,-44.5 0,-24.57667 19.92332,-44.5 44.5,-44.5 24.57667,0 44.5,19.92333 44.5,44.5 z" style="fill:#972c0a"/><path id="path30" d="M 160.187,124.526 C 55.144,194.999 11.317,313.727 62.296,389.712 c 50.977,75.982 177.457,80.455 282.5,9.981 105.043,-70.472 148.869,-189.2 97.891,-265.185 -50.98,-75.985 -177.458,-80.455 -282.5,-9.982 z m 158.057,202.736 c -83.325,55.902 -180.853,56.539 -217.832,1.418 -36.981,-55.12 0.591,-145.122 83.915,-201.025 83.327,-55.904 180.852,-56.538 217.834,-1.418 36.981,55.12 -0.591,145.123 -83.917,201.025 z" style="fill:#972c0a"/><path id="path32" d="M 157.187,115.526 C 52.144,185.999 8.317,304.727 59.296,380.712 c 50.977,75.982 177.457,80.455 282.5,9.981 105.043,-70.472 148.869,-189.2 97.891,-265.185 -50.98,-75.985 -177.458,-80.455 -282.5,-9.982 z m 158.057,202.736 c -83.325,55.902 -180.853,56.539 -217.832,1.418 -36.981,-55.12 0.591,-145.122 83.915,-201.025 83.327,-55.904 180.852,-56.538 217.834,-1.418 36.981,55.12 -0.591,145.122 -83.917,201.025 z" style="fill:#fff"/><circle id="circle34" cx="435.281" cy="396.17" r="44.5" d="m 479.78101,396.17001 c 0,24.57667 -19.92333,44.5 -44.5,44.5 -24.57668,0 -44.5,-19.92333 -44.5,-44.5 0,-24.57667 19.92332,-44.5 44.5,-44.5 24.57667,0 44.5,19.92333 44.5,44.5 z" style="fill:#fff"/><path id="path36" d="M 399.162,117.236" style="fill:none"/><path id="path38" d="M 97.413,319.68" style="fill:none"/></g></g></g></g></svg>